<svg xmlns="http://www.w3.org/2000/svg" viewBox="0 0 360 450" width="360" height="450">
    <defs>
      <filter id="ds-crossworddaily" x="-30%" y="-30%" width="160%" height="160%">
        <feDropShadow dx="0" dy="8" stdDeviation="7" flood-color="#000" flood-opacity="0.5"/>
      </filter>
      <linearGradient id="vg-crossworddaily" x1="0" y1="0" x2="0" y2="1">
        <stop offset="0.58" stop-color="#000" stop-opacity="0"/>
        <stop offset="1" stop-color="#000" stop-opacity="0.5"/>
      </linearGradient>
    </defs>
    
    <rect width="360" height="450" fill="#120c08"/>
    <rect x="8" y="8" width="344" height="434" rx="32" fill="#5c3a16"/>
    <rect x="8" y="8" width="344" height="434" rx="32" fill="none" stroke="#e8c97a" stroke-width="1.4" opacity="0.35"/>
    <rect x="22" y="22" width="316" height="406" rx="22" fill="#1a2744"/>
    <rect x="22" y="22" width="316" height="406" rx="22" fill="#0c1220" opacity="0.36"/>
    <ellipse cx="180" cy="86" rx="124" ry="46" fill="#fff" opacity="0.08"/>
    <rect x="70" y="120" width="50" height="50" fill="#f4efe2"/>
      <text x="95" y="155" text-anchor="middle" font-size="22" fill="#1a1a1a">C</text><rect x="125" y="120" width="50" height="50" fill="#f4efe2"/>
      <text x="150" y="155" text-anchor="middle" font-size="22" fill="#1a1a1a">A</text><rect x="180" y="120" width="50" height="50" fill="#f4efe2"/>
      <text x="205" y="155" text-anchor="middle" font-size="22" fill="#1a1a1a">R</text><rect x="235" y="120" width="50" height="50" fill="#f4efe2"/>
      <text x="260" y="155" text-anchor="middle" font-size="22" fill="#1a1a1a">D</text>
    <rect x="70" y="175" width="50" height="50" fill="#f4efe2"/>
      <text x="95" y="210" text-anchor="middle" font-size="22" fill="#1a1a1a">A</text><rect x="125" y="175" width="50" height="50" fill="#f4efe2"/>
      <text x="150" y="210" text-anchor="middle" font-size="22" fill="#1a1a1a">U</text><rect x="180" y="175" width="50" height="50" fill="#f4efe2"/>
      <text x="205" y="210" text-anchor="middle" font-size="22" fill="#1a1a1a">R</text><rect x="235" y="175" width="50" height="50" fill="#f4efe2"/>
      <text x="260" y="210" text-anchor="middle" font-size="22" fill="#1a1a1a">A</text>
    
    <rect width="360" height="450" fill="url(#vg-crossworddaily)" pointer-events="none"/>
  </svg>